<svg width="180" height="180" viewBox="0 0 180 180" fill="none" xmlns="http://www.w3.org/2000/svg">
<path d="M15.1699 55.059C15.1699 51.8376 17.7814 49.2261 21.0029 49.2261H138.223C141.445 49.2261 144.056 51.8376 144.056 55.059V137.513H15.1699V55.059Z" fill="url(#paint0_linear_3800_285713)"/>
<g filter="url(#filter0_f_3800_285713)">
<path d="M2.28125 142.668L2.99563 142.024H156.23L156.945 142.668H2.28125Z" fill="black" fill-opacity="0.6"/>
</g>
<g filter="url(#filter1_f_3800_285713)">
<path d="M2.28125 142.668L2.99563 142.024H156.23L156.945 142.668H2.28125Z" fill="black" fill-opacity="0.5"/>
</g>
<g filter="url(#filter2_ii_3800_285713)">
<rect x="2.28125" y="137.513" width="154.663" height="4.51101" rx="0.808259" fill="url(#paint1_linear_3800_285713)"/>
</g>
<rect x="18.623" y="52.564" width="121.98" height="81.4394" rx="4" fill="url(#paint2_linear_3800_285713)"/>
<rect x="17.1648" y="51.1057" width="124.897" height="84.3558" rx="5.45823" stroke="black" stroke-opacity="0.07" stroke-width="2.91647"/>
<rect x="17.1648" y="51.1057" width="124.897" height="84.3558" rx="5.45823" stroke="url(#paint3_linear_3800_285713)" stroke-opacity="0.83" stroke-width="2.91647"/>
<g filter="url(#filter3_f_3800_285713)">
<path d="M57.0586 158.517L58.9919 155.939H100.235L102.169 158.517H57.0586Z" fill="black" fill-opacity="0.6"/>
</g>
<rect x="56.4141" y="80.541" width="46.399" height="77.3317" rx="5.83294" fill="url(#paint4_linear_3800_285713)"/>
<rect x="54.9558" y="79.0828" width="49.3155" height="80.2481" rx="7.29117" stroke="black" stroke-opacity="0.07" stroke-width="2.91647"/>
<rect x="54.9558" y="79.0828" width="49.3155" height="80.2481" rx="7.29117" stroke="url(#paint5_linear_3800_285713)" stroke-opacity="0.83" stroke-width="2.91647"/>
<g filter="url(#filter4_dii_3800_285713)">
<path d="M79.6124 90.4912C75.2717 90.4912 71.7528 94.01 71.7528 98.3507C71.7528 102.691 75.2717 106.21 79.6124 106.21C83.9531 106.21 87.4719 102.691 87.4719 98.3507C87.4719 94.01 83.9531 90.4912 79.6124 90.4912ZM70.3773 109.354C68.533 109.354 67.0371 110.848 67.0371 112.694L67.0371 113.284C67.0371 116.236 68.5632 118.445 70.9041 119.87C73.2061 121.272 76.3004 121.929 79.6124 121.929C82.9243 121.929 86.0186 121.272 88.3206 119.87C90.6615 118.445 92.1876 116.236 92.1876 113.284L92.1876 112.693C92.1876 110.848 90.6917 109.354 88.8475 109.354H70.3773Z" fill="url(#paint6_linear_3800_285713)"/>
</g>
<g filter="url(#filter5_ddii_3800_285713)">
<path d="M173.992 36.3438C173.994 35.7641 173.782 35.2069 173.403 34.7911C173.023 34.3753 172.506 34.134 171.962 34.1189C162.377 33.9045 158.986 32.143 154.261 28.7475C151.041 26.3875 147.208 25.1577 143.299 25.2302C139.389 25.1565 135.557 26.3865 132.337 28.7475C127.607 32.143 124.215 33.9103 114.63 34.1189C114.086 34.134 113.57 34.3754 113.191 34.7914C112.813 35.2073 112.602 35.7646 112.606 36.3438V51.044C112.609 53.3449 112.818 55.6403 113.231 57.8988C115.811 72.2455 126.376 83.1619 142.227 92.8848C142.557 93.0876 142.933 93.1917 143.315 93.1861V93.1861C143.541 93.1844 143.765 93.1452 143.979 93.0701C144.119 93.0242 144.254 92.9621 144.382 92.8848C160.232 83.1619 170.797 72.2455 173.377 57.8988C173.442 57.5395 173.497 57.186 173.551 56.8268C173.849 54.9115 174.002 52.9738 174.009 51.0324L173.992 36.3438Z" fill="url(#paint7_linear_3800_285713)"/>
</g>
<g filter="url(#filter6_ddii_3800_285713)">
<path d="M128.314 58.9616C128.314 58.6612 128.366 58.3814 128.468 58.122C128.571 57.8626 128.719 57.6305 128.911 57.4258C129.104 57.221 129.322 57.064 129.566 56.9548C129.81 56.8456 130.079 56.7841 130.375 56.7705C130.927 56.7705 131.408 56.9889 131.819 57.4258L138.577 64.6133L155.194 46.9414C155.605 46.5046 156.093 46.2861 156.658 46.2861C156.94 46.2861 157.203 46.3407 157.447 46.45C157.691 46.5592 157.909 46.723 158.102 46.9414C158.294 47.1598 158.442 47.3919 158.545 47.6376C158.647 47.8834 158.705 48.1632 158.718 48.4772C158.718 49.0779 158.513 49.5966 158.102 50.0335L140.021 69.2411C139.829 69.4459 139.611 69.6029 139.367 69.7121C139.123 69.8213 138.86 69.8828 138.577 69.8964C138.025 69.8964 137.544 69.678 137.133 69.2411L128.911 60.5178C128.513 60.0946 128.314 59.5759 128.314 58.9616Z" fill="white"/>
</g>
<defs>
<filter id="filter0_f_3800_285713" x="0.823016" y="140.566" width="157.581" height="3.561" filterUnits="userSpaceOnUse" color-interpolation-filters="sRGB">
<feFlood flood-opacity="0" result="BackgroundImageFix"/>
<feBlend mode="normal" in="SourceGraphic" in2="BackgroundImageFix" result="shape"/>
<feGaussianBlur stdDeviation="0.729117" result="effect1_foregroundBlur_3800_285713"/>
</filter>
<filter id="filter1_f_3800_285713" x="0.823016" y="140.566" width="157.581" height="3.561" filterUnits="userSpaceOnUse" color-interpolation-filters="sRGB">
<feFlood flood-opacity="0" result="BackgroundImageFix"/>
<feBlend mode="normal" in="SourceGraphic" in2="BackgroundImageFix" result="shape"/>
<feGaussianBlur stdDeviation="0.729117" result="effect1_foregroundBlur_3800_285713"/>
</filter>
<filter id="filter2_ii_3800_285713" x="2.28125" y="137.21" width="154.664" height="5.01639" filterUnits="userSpaceOnUse" color-interpolation-filters="sRGB">
<feFlood flood-opacity="0" result="BackgroundImageFix"/>
<feBlend mode="normal" in="SourceGraphic" in2="BackgroundImageFix" result="shape"/>
<feColorMatrix in="SourceAlpha" type="matrix" values="0 0 0 0 0 0 0 0 0 0 0 0 0 0 0 0 0 0 127 0" result="hardAlpha"/>
<feOffset dy="-0.303097"/>
<feGaussianBlur stdDeviation="0.151549"/>
<feComposite in2="hardAlpha" operator="arithmetic" k2="-1" k3="1"/>
<feColorMatrix type="matrix" values="0 0 0 0 0 0 0 0 0 0 0 0 0 0 0 0 0 0 0.12 0"/>
<feBlend mode="normal" in2="shape" result="effect1_innerShadow_3800_285713"/>
<feColorMatrix in="SourceAlpha" type="matrix" values="0 0 0 0 0 0 0 0 0 0 0 0 0 0 0 0 0 0 127 0" result="hardAlpha"/>
<feOffset dy="0.303097"/>
<feGaussianBlur stdDeviation="0.101032"/>
<feComposite in2="hardAlpha" operator="arithmetic" k2="-1" k3="1"/>
<feColorMatrix type="matrix" values="0 0 0 0 1 0 0 0 0 1 0 0 0 0 1 0 0 0 0.4 0"/>
<feBlend mode="normal" in2="effect1_innerShadow_3800_285713" result="effect2_innerShadow_3800_285713"/>
</filter>
<filter id="filter3_f_3800_285713" x="54.1421" y="153.023" width="50.9423" height="8.41057" filterUnits="userSpaceOnUse" color-interpolation-filters="sRGB">
<feFlood flood-opacity="0" result="BackgroundImageFix"/>
<feBlend mode="normal" in="SourceGraphic" in2="BackgroundImageFix" result="shape"/>
<feGaussianBlur stdDeviation="1.45823" result="effect1_foregroundBlur_3800_285713"/>
</filter>
<filter id="filter4_dii_3800_285713" x="64.5276" y="83.4846" width="36.3975" height="48.2223" filterUnits="userSpaceOnUse" color-interpolation-filters="sRGB">
<feFlood flood-opacity="0" result="BackgroundImageFix"/>
<feColorMatrix in="SourceAlpha" type="matrix" values="0 0 0 0 0 0 0 0 0 0 0 0 0 0 0 0 0 0 127 0" result="hardAlpha"/>
<feOffset dx="3.11405" dy="4.15418"/>
<feGaussianBlur stdDeviation="2.81178"/>
<feComposite in2="hardAlpha" operator="out"/>
<feColorMatrix type="matrix" values="0 0 0 0 0 0 0 0 0 0 0 0 0 0 0 0 0 0 0.1 0"/>
<feBlend mode="normal" in2="BackgroundImageFix" result="effect1_dropShadow_3800_285713"/>
<feBlend mode="normal" in="SourceGraphic" in2="effect1_dropShadow_3800_285713" result="shape"/>
<feColorMatrix in="SourceAlpha" type="matrix" values="0 0 0 0 0 0 0 0 0 0 0 0 0 0 0 0 0 0 127 0" result="hardAlpha"/>
<feOffset dy="-7.00661"/>
<feGaussianBlur stdDeviation="3.89256"/>
<feComposite in2="hardAlpha" operator="arithmetic" k2="-1" k3="1"/>
<feColorMatrix type="matrix" values="0 0 0 0 0 0 0 0 0 0 0 0 0 0 0 0 0 0 0.15 0"/>
<feBlend mode="normal" in2="shape" result="effect2_innerShadow_3800_285713"/>
<feColorMatrix in="SourceAlpha" type="matrix" values="0 0 0 0 0 0 0 0 0 0 0 0 0 0 0 0 0 0 127 0" result="hardAlpha"/>
<feOffset dy="4.67107"/>
<feGaussianBlur stdDeviation="3.11405"/>
<feComposite in2="hardAlpha" operator="arithmetic" k2="-1" k3="1"/>
<feColorMatrix type="matrix" values="0 0 0 0 1 0 0 0 0 1 0 0 0 0 1 0 0 0 0.25 0"/>
<feBlend mode="normal" in2="effect2_innerShadow_3800_285713" result="effect3_innerShadow_3800_285713"/>
</filter>
<filter id="filter5_ddii_3800_285713" x="111.651" y="22.5614" width="65.6813" height="74.3451" filterUnits="userSpaceOnUse" color-interpolation-filters="sRGB">
<feFlood flood-opacity="0" result="BackgroundImageFix"/>
<feColorMatrix in="SourceAlpha" type="matrix" values="0 0 0 0 0 0 0 0 0 0 0 0 0 0 0 0 0 0 127 0" result="hardAlpha"/>
<feOffset dy="0.361181"/>
<feGaussianBlur stdDeviation="0.230052"/>
<feComposite in2="hardAlpha" operator="out"/>
<feColorMatrix type="matrix" values="0 0 0 0 0 0 0 0 0 0 0 0 0 0 0 0 0 0 0.25 0"/>
<feBlend mode="normal" in2="BackgroundImageFix" result="effect1_dropShadow_3800_285713"/>
<feColorMatrix in="SourceAlpha" type="matrix" values="0 0 0 0 0 0 0 0 0 0 0 0 0 0 0 0 0 0 127 0" result="hardAlpha"/>
<feOffset dx="1.18474" dy="1.58045"/>
<feGaussianBlur stdDeviation="1.06974"/>
<feComposite in2="hardAlpha" operator="out"/>
<feColorMatrix type="matrix" values="0 0 0 0 0 0 0 0 0 0 0 0 0 0 0 0 0 0 0.1 0"/>
<feBlend mode="normal" in2="effect1_dropShadow_3800_285713" result="effect2_dropShadow_3800_285713"/>
<feBlend mode="normal" in="SourceGraphic" in2="effect2_dropShadow_3800_285713" result="shape"/>
<feColorMatrix in="SourceAlpha" type="matrix" values="0 0 0 0 0 0 0 0 0 0 0 0 0 0 0 0 0 0 127 0" result="hardAlpha"/>
<feOffset dy="-2.66566"/>
<feGaussianBlur stdDeviation="1.48092"/>
<feComposite in2="hardAlpha" operator="arithmetic" k2="-1" k3="1"/>
<feColorMatrix type="matrix" values="0 0 0 0 0 0 0 0 0 0 0 0 0 0 0 0 0 0 0.15 0"/>
<feBlend mode="normal" in2="shape" result="effect3_innerShadow_3800_285713"/>
<feColorMatrix in="SourceAlpha" type="matrix" values="0 0 0 0 0 0 0 0 0 0 0 0 0 0 0 0 0 0 127 0" result="hardAlpha"/>
<feOffset dy="1.77711"/>
<feGaussianBlur stdDeviation="1.18474"/>
<feComposite in2="hardAlpha" operator="arithmetic" k2="-1" k3="1"/>
<feColorMatrix type="matrix" values="0 0 0 0 1 0 0 0 0 1 0 0 0 0 1 0 0 0 0.25 0"/>
<feBlend mode="normal" in2="effect3_innerShadow_3800_285713" result="effect4_innerShadow_3800_285713"/>
</filter>
<filter id="filter6_ddii_3800_285713" x="127.208" y="43.797" width="34.8295" height="31.0778" filterUnits="userSpaceOnUse" color-interpolation-filters="sRGB">
<feFlood flood-opacity="0" result="BackgroundImageFix"/>
<feColorMatrix in="SourceAlpha" type="matrix" values="0 0 0 0 0 0 0 0 0 0 0 0 0 0 0 0 0 0 127 0" result="hardAlpha"/>
<feOffset dx="-0.276572" dy="0.553145"/>
<feGaussianBlur stdDeviation="0.138286"/>
<feComposite in2="hardAlpha" operator="out"/>
<feColorMatrix type="matrix" values="0 0 0 0 0 0 0 0 0 0 0 0 0 0 0 0 0 0 0.25 0"/>
<feBlend mode="normal" in2="BackgroundImageFix" result="effect1_dropShadow_3800_285713"/>
<feColorMatrix in="SourceAlpha" type="matrix" values="0 0 0 0 0 0 0 0 0 0 0 0 0 0 0 0 0 0 127 0" result="hardAlpha"/>
<feOffset dx="1.10629" dy="2.76572"/>
<feGaussianBlur stdDeviation="1.10629"/>
<feComposite in2="hardAlpha" operator="out"/>
<feColorMatrix type="matrix" values="0 0 0 0 0 0 0 0 0 0 0 0 0 0 0 0 0 0 0.1 0"/>
<feBlend mode="normal" in2="effect1_dropShadow_3800_285713" result="effect2_dropShadow_3800_285713"/>
<feBlend mode="normal" in="SourceGraphic" in2="effect2_dropShadow_3800_285713" result="shape"/>
<feColorMatrix in="SourceAlpha" type="matrix" values="0 0 0 0 0 0 0 0 0 0 0 0 0 0 0 0 0 0 127 0" result="hardAlpha"/>
<feOffset dy="-2.48915"/>
<feGaussianBlur stdDeviation="1.38286"/>
<feComposite in2="hardAlpha" operator="arithmetic" k2="-1" k3="1"/>
<feColorMatrix type="matrix" values="0 0 0 0 0 0 0 0 0 0 0 0 0 0 0 0 0 0 0.15 0"/>
<feBlend mode="normal" in2="shape" result="effect3_innerShadow_3800_285713"/>
<feColorMatrix in="SourceAlpha" type="matrix" values="0 0 0 0 0 0 0 0 0 0 0 0 0 0 0 0 0 0 127 0" result="hardAlpha"/>
<feOffset dy="1.65943"/>
<feGaussianBlur stdDeviation="1.10629"/>
<feComposite in2="hardAlpha" operator="arithmetic" k2="-1" k3="1"/>
<feColorMatrix type="matrix" values="0 0 0 0 1 0 0 0 0 1 0 0 0 0 1 0 0 0 0.25 0"/>
<feBlend mode="normal" in2="effect3_innerShadow_3800_285713" result="effect4_innerShadow_3800_285713"/>
</filter>
<linearGradient id="paint0_linear_3800_285713" x1="79.613" y1="49.2261" x2="79.613" y2="137.513" gradientUnits="userSpaceOnUse">
<stop stop-color="#99A5B0"/>
<stop offset="1" stop-color="#8897A4"/>
</linearGradient>
<linearGradient id="paint1_linear_3800_285713" x1="156.945" y1="137.513" x2="2.28125" y2="137.513" gradientUnits="userSpaceOnUse">
<stop stop-color="#A8B5BF"/>
<stop offset="0.0357143" stop-color="#BFCDD9"/>
<stop offset="0.0714286" stop-color="#B4C1CC"/>
<stop offset="0.500018" stop-color="#B4C1CC"/>
<stop offset="0.928571" stop-color="#B4C1CC"/>
<stop offset="0.964286" stop-color="#BFCDD9"/>
<stop offset="1" stop-color="#A8B5BF"/>
</linearGradient>
<linearGradient id="paint2_linear_3800_285713" x1="107.884" y1="128.009" x2="93.119" y2="41.4138" gradientUnits="userSpaceOnUse">
<stop stop-color="#E6EBEC"/>
<stop offset="1" stop-color="#F5F5F5"/>
</linearGradient>
<linearGradient id="paint3_linear_3800_285713" x1="79.6133" y1="52.564" x2="79.6133" y2="134.003" gradientUnits="userSpaceOnUse">
<stop stop-color="#99A5B0"/>
<stop offset="1" stop-color="#99A5B0"/>
</linearGradient>
<linearGradient id="paint4_linear_3800_285713" x1="90.3673" y1="152.181" x2="59.8743" y2="80.5418" gradientUnits="userSpaceOnUse">
<stop stop-color="#EAEFF0"/>
<stop offset="1" stop-color="white"/>
</linearGradient>
<linearGradient id="paint5_linear_3800_285713" x1="79.6136" y1="80.541" x2="79.6136" y2="157.873" gradientUnits="userSpaceOnUse">
<stop stop-color="#99A5B0"/>
<stop offset="1" stop-color="#99A5B0"/>
</linearGradient>
<linearGradient id="paint6_linear_3800_285713" x1="69.4444" y1="90.4912" x2="56.105" y2="135.293" gradientUnits="userSpaceOnUse">
<stop stop-color="#0078D4"/>
<stop offset="1" stop-color="#5B41D3"/>
</linearGradient>
<linearGradient id="paint7_linear_3800_285713" x1="95.8031" y1="44.7896" x2="119.702" y2="114.085" gradientUnits="userSpaceOnUse">
<stop stop-color="#0078D4"/>
<stop offset="1" stop-color="#5B41D3"/>
</linearGradient>
</defs>
</svg>
