<svg width="113" height="24" viewBox="0 0 113 24" fill="none" xmlns="http://www.w3.org/2000/svg">
<path d="M46.7861 4.79995V19.2H44.2861V7.91195H44.246L39.7761 19.2H38.1191L33.54 7.91195H33.5101V19.2H31.2001V4.79995H34.785L38.923 15.475H38.983L43.3511 4.79995H46.7861ZM48.8771 5.89996C48.8733 5.71028 48.9104 5.52202 48.9858 5.34793C49.0612 5.17383 49.1732 5.01797 49.3141 4.89096C49.5937 4.62437 49.9668 4.47824 50.3531 4.48398C50.5496 4.47776 50.7453 4.51151 50.9283 4.58319C51.1114 4.65487 51.2781 4.76298 51.4181 4.90097C51.5535 5.0296 51.6608 5.18482 51.7335 5.3569C51.8061 5.52898 51.8424 5.71421 51.8401 5.90097C51.8438 6.08798 51.8072 6.27358 51.7326 6.44513C51.6581 6.61667 51.5474 6.7701 51.4081 6.89496C51.1223 7.16124 50.7436 7.30488 50.3531 7.29498C50.16 7.29979 49.9679 7.2663 49.7878 7.19644C49.6078 7.12658 49.4434 7.02173 49.3041 6.88797C49.167 6.76268 49.058 6.60975 48.9844 6.43927C48.9108 6.26879 48.8743 6.08462 48.8771 5.89895V5.89996ZM51.558 19.205H49.1281V8.87597H51.558V19.205ZM58.9291 17.437C59.3411 17.428 59.748 17.3429 60.1291 17.186C60.5575 17.0212 60.9612 16.7984 61.329 16.524V18.783C60.9158 19.0132 60.4711 19.1817 60.009 19.283C59.4766 19.4013 58.9325 19.4587 58.3871 19.454C57.7058 19.4853 57.0253 19.3744 56.3892 19.1283C55.7531 18.8822 55.1752 18.5062 54.6924 18.0245C54.2096 17.5427 53.8325 16.9656 53.585 16.3301C53.3375 15.6945 53.2252 15.0144 53.2551 14.333C53.1994 12.8304 53.7207 11.3635 54.712 10.233C55.2418 9.68095 55.8854 9.25083 56.598 8.97247C57.3107 8.69411 58.0754 8.57417 58.8391 8.62097C59.3049 8.62253 59.7687 8.68164 60.22 8.79696C60.6057 8.88434 60.9784 9.02115 61.329 9.20398V11.534C60.976 11.2708 60.5892 11.0562 60.1791 10.896C59.7966 10.7466 59.3896 10.67 58.9791 10.67C58.5483 10.6525 58.1186 10.7267 57.7187 10.8877C57.3187 11.0487 56.9576 11.2929 56.6591 11.604C56.0441 12.2952 55.7265 13.201 55.7751 14.125C55.7484 14.5676 55.8097 15.0111 55.9554 15.4299C56.1011 15.8487 56.3284 16.2345 56.6241 16.565C56.9263 16.8615 57.2868 17.0922 57.6826 17.2424C58.0785 17.3927 58.5012 17.4593 58.9241 17.438L58.9291 17.437ZM68.243 8.71197C68.4182 8.71029 68.5932 8.72368 68.7661 8.75198C68.8991 8.77343 69.03 8.80687 69.157 8.85196V11.313C68.9852 11.1975 68.7976 11.1076 68.6 11.046C68.3124 10.9564 68.0122 10.9142 67.7111 10.921C67.418 10.9205 67.1289 10.9882 66.8666 11.119C66.6043 11.2497 66.3761 11.4397 66.2001 11.674C65.7359 12.3544 65.5179 13.1728 65.582 13.994V19.2H63.152V8.87597H65.582V10.5H65.6221C65.8186 9.96995 66.1685 9.51043 66.6271 9.17996C67.1017 8.85392 67.6675 8.68691 68.243 8.70297V8.71197ZM69.2891 14.186C69.2499 13.4477 69.3576 12.709 69.6058 12.0127C69.854 11.3163 70.2378 10.676 70.735 10.129C71.264 9.61412 71.8943 9.21492 72.5859 8.95669C73.2774 8.69846 74.0151 8.58685 74.7521 8.62896C75.4482 8.58942 76.1449 8.69735 76.7964 8.94567C77.448 9.194 78.0398 9.57712 78.5331 10.07C79.4282 11.1943 79.9084 12.5927 79.8927 14.0298C79.877 15.4668 79.3665 16.8545 78.4471 17.959C77.9294 18.4653 77.3123 18.8588 76.6348 19.1146C75.9574 19.3704 75.2342 19.4829 74.511 19.445C73.8133 19.4807 73.1156 19.3741 72.4604 19.1315C71.8052 18.8889 71.2063 18.5155 70.7001 18.034C70.2161 17.5212 69.8414 16.9155 69.5989 16.2534C69.3563 15.5914 69.2509 14.887 69.2891 14.183V14.186ZM71.819 14.103C71.7588 14.9878 72.0193 15.8647 72.553 16.573C72.8166 16.8637 73.1422 17.0913 73.5057 17.239C73.8693 17.3867 74.2615 17.4506 74.6531 17.426C75.0327 17.4505 75.4129 17.3861 75.7634 17.2381C76.1138 17.09 76.425 16.8623 76.6721 16.573C77.185 15.833 77.4295 14.94 77.3651 14.042C77.4297 13.1452 77.1754 12.2544 76.647 11.527C76.398 11.2419 76.0873 11.0173 75.7385 10.8702C75.3897 10.7231 75.012 10.6574 74.634 10.678C74.2431 10.6568 73.8526 10.7259 73.4927 10.8801C73.1329 11.0343 72.8134 11.2693 72.5591 11.567C72.0232 12.2995 71.762 13.1972 71.821 14.103H71.819ZM83.511 11.582C83.5029 11.7344 83.5284 11.8867 83.5856 12.0282C83.6428 12.1697 83.7303 12.297 83.842 12.401C84.2919 12.7198 84.7857 12.9715 85.308 13.148C86.0871 13.4097 86.7893 13.8601 87.3521 14.459C87.7484 14.9593 87.9562 15.583 87.9391 16.221C87.9523 16.672 87.8576 17.1197 87.6628 17.5268C87.468 17.9338 87.1786 18.2884 86.819 18.561C85.9402 19.1918 84.8723 19.5037 83.7921 19.445C83.3144 19.4397 82.8384 19.3875 82.371 19.289C81.9173 19.2045 81.4744 19.0704 81.05 18.889V16.5C81.4902 16.8071 81.9699 17.0533 82.4761 17.232C82.9193 17.4006 83.388 17.4926 83.8621 17.504C84.2801 17.5313 84.6983 17.4518 85.0771 17.273C85.2076 17.1931 85.3134 17.0785 85.3826 16.942C85.4518 16.8055 85.4817 16.6525 85.4691 16.5C85.4701 16.3368 85.434 16.1756 85.3635 16.0285C85.2929 15.8814 85.1899 15.7523 85.0621 15.651C84.5897 15.3113 84.0707 15.0418 83.5211 14.851C82.7915 14.5906 82.1365 14.156 81.613 13.585C81.2234 13.0728 81.0244 12.441 81.05 11.798C81.0422 11.3552 81.1385 10.9168 81.3314 10.5181C81.5242 10.1194 81.808 9.77167 82.16 9.50296C82.9842 8.87563 84.0023 8.55716 85.037 8.60296C85.4448 8.60731 85.8514 8.64781 86.2521 8.72396C86.6373 8.78635 87.0145 8.89064 87.3771 9.03497V11.345C87.0257 11.1161 86.6479 10.9304 86.2521 10.792C85.8437 10.6417 85.4122 10.5635 84.9771 10.561C84.5979 10.5393 84.2211 10.6338 83.897 10.832C83.7746 10.9128 83.6749 11.0235 83.6073 11.1537C83.5397 11.284 83.5066 11.4293 83.511 11.576V11.582ZM88.983 14.176C88.9439 13.4377 89.0516 12.6991 89.2998 12.0027C89.548 11.3063 89.9318 10.666 90.4291 10.119C90.9581 9.60411 91.5883 9.20491 92.2798 8.94668C92.9714 8.68845 93.7091 8.57684 94.446 8.61895C95.1422 8.57934 95.8389 8.68725 96.4905 8.93557C97.1421 9.1839 97.7338 9.56706 98.2271 10.06C99.1227 11.184 99.6033 12.5825 99.5878 14.0196C99.5723 15.4567 99.0617 16.8445 98.1421 17.949C97.6242 18.4554 97.007 18.8488 96.3293 19.1046C95.6517 19.3604 94.9284 19.4729 94.2051 19.435C93.5073 19.4706 92.8097 19.3639 92.1545 19.1213C91.4993 18.8788 90.9003 18.5054 90.394 18.024C89.9101 17.5112 89.5354 16.9055 89.2928 16.2435C89.0503 15.5814 88.9449 14.877 88.983 14.173V14.176ZM91.514 14.093C91.4535 14.9776 91.7137 15.8545 92.2471 16.563C92.5107 16.8536 92.8363 17.0812 93.1998 17.2288C93.5634 17.3765 93.9554 17.4404 94.347 17.416C94.7266 17.4404 95.1066 17.3761 95.4569 17.228C95.8072 17.0799 96.1182 16.8522 96.3651 16.563C96.8779 15.823 97.1224 14.93 97.058 14.032C97.1232 13.1352 96.8689 12.2442 96.3401 11.517C96.091 11.2319 95.7803 11.0073 95.4315 10.8602C95.0827 10.7131 94.7051 10.6474 94.3271 10.668C93.9363 10.6466 93.5458 10.7157 93.1861 10.8699C92.8264 11.0241 92.5071 11.2592 92.2531 11.557C91.7172 12.2896 91.456 13.1872 91.5151 14.093H91.514ZM107.651 10.849H104.032V19.2H101.572V10.865H99.8441V8.87597H101.572V7.43997C101.555 6.94655 101.64 6.45493 101.822 5.99609C102.005 5.53725 102.28 5.12112 102.631 4.77395C102.991 4.42695 103.417 4.15609 103.884 3.97757C104.351 3.79904 104.849 3.71651 105.348 3.73495C105.61 3.73303 105.871 3.74808 106.131 3.77997C106.335 3.80529 106.536 3.85084 106.731 3.91595V6.01596C106.596 5.94712 106.455 5.89026 106.31 5.84597C106.086 5.77569 105.852 5.74192 105.617 5.74597C105.398 5.73258 105.178 5.76846 104.975 5.85101C104.771 5.93355 104.589 6.06065 104.441 6.22296C104.139 6.62884 103.994 7.12958 104.03 7.63397V8.87896H107.649V6.55996L110.09 5.81695V8.87896H112.55V10.868H110.09V15.698C110.044 16.1733 110.167 16.6497 110.436 17.044C110.579 17.1841 110.75 17.2915 110.938 17.359C111.126 17.4265 111.327 17.4524 111.526 17.435C111.699 17.4289 111.87 17.3951 112.033 17.335C112.214 17.2755 112.388 17.1946 112.55 17.094V19.1C112.307 19.217 112.048 19.2985 111.782 19.342C111.433 19.4142 111.078 19.451 110.722 19.452C110.303 19.4838 109.881 19.4274 109.485 19.2863C109.089 19.1452 108.727 18.9227 108.422 18.633C107.859 17.9403 107.584 17.0578 107.653 16.168L107.651 10.849Z" fill="#737373"/>
<path d="M11.406 0H0V11.406H11.406V0Z" fill="#F25022"/>
<path d="M24 0H12.594V11.406H24V0Z" fill="#7FBA00"/>
<path d="M11.406 12.5938H0V23.9997H11.406V12.5938Z" fill="#00A4EF"/>
<path d="M24 12.5938H12.594V23.9997H24V12.5938Z" fill="#FFB900"/>
</svg>
